<?xml version="1.0" standalone="no"?>
<svg xmlns:xlink="http://www.w3.org/1999/xlink" id="wave" style="transform:rotate(0deg); transition: 0.3s" viewBox="0 0 1440 490" version="1.1" xmlns="http://www.w3.org/2000/svg"><defs><linearGradient id="sw-gradient-0" x1="0" x2="0" y1="1" y2="0"><stop stop-color="rgba(243, 106, 62, 1)" offset="0%"/><stop stop-color="rgba(255, 179, 11, 1)" offset="100%"/></linearGradient></defs><path style="transform:translate(0, 0px); opacity:1" fill="url(#sw-gradient-0)" d="M0,343L26.7,326.7C53.3,310,107,278,160,269.5C213.3,261,267,278,320,253.2C373.3,229,427,163,480,130.7C533.3,98,587,98,640,147C693.3,196,747,294,800,334.8C853.3,376,907,359,960,318.5C1013.3,278,1067,212,1120,228.7C1173.3,245,1227,343,1280,326.7C1333.3,310,1387,180,1440,130.7C1493.3,82,1547,114,1600,163.3C1653.3,212,1707,278,1760,294C1813.3,310,1867,278,1920,245C1973.3,212,2027,180,2080,171.5C2133.3,163,2187,180,2240,204.2C2293.3,229,2347,261,2400,294C2453.3,327,2507,359,2560,383.8C2613.3,408,2667,425,2720,400.2C2773.3,376,2827,310,2880,261.3C2933.3,212,2987,180,3040,212.3C3093.3,245,3147,343,3200,318.5C3253.3,294,3307,147,3360,122.5C3413.3,98,3467,196,3520,253.2C3573.3,310,3627,327,3680,343C3733.3,359,3787,376,3813,383.8L3840,392L3840,490L3813.3,490C3786.7,490,3733,490,3680,490C3626.7,490,3573,490,3520,490C3466.7,490,3413,490,3360,490C3306.7,490,3253,490,3200,490C3146.7,490,3093,490,3040,490C2986.7,490,2933,490,2880,490C2826.7,490,2773,490,2720,490C2666.7,490,2613,490,2560,490C2506.7,490,2453,490,2400,490C2346.7,490,2293,490,2240,490C2186.7,490,2133,490,2080,490C2026.7,490,1973,490,1920,490C1866.7,490,1813,490,1760,490C1706.7,490,1653,490,1600,490C1546.7,490,1493,490,1440,490C1386.7,490,1333,490,1280,490C1226.7,490,1173,490,1120,490C1066.7,490,1013,490,960,490C906.7,490,853,490,800,490C746.7,490,693,490,640,490C586.7,490,533,490,480,490C426.7,490,373,490,320,490C266.7,490,213,490,160,490C106.7,490,53,490,27,490L0,490Z"/></svg>